<?xml version="1.0" encoding="UTF-8"?>
<svg id="Layer_1" xmlns="http://www.w3.org/2000/svg" version="1.1" viewBox="0 0 1080 1080">
  <!-- Generator: Adobe Illustrator 29.2.1, SVG Export Plug-In . SVG Version: 2.1.0 Build 116)  -->
  <defs>
    <style>
      .st0 {
        fill: #ea4335;
        stroke: #ea4335;
      }

      .st0, .st1, .st2, .st3 {
        stroke-miterlimit: 10;
        stroke-width: 4px;
      }

      .st1 {
        fill: #fbbc05;
        stroke: #fbbc05;
      }

      .st2 {
        fill: #34a853;
        stroke: #34a853;
      }

      .st3 {
        fill: #4285f4;
        stroke: #4285f4;
      }
    </style>
  </defs>
  <path class="st3" d="M254.21,549.21H113.23v2.7c0,18.7,4.9,33.35,14.69,43.94,9.79,10.59,23.66,15.88,41.59,15.88,13.1,0,23.72-3.07,31.86-9.21,8.14-6.14,12.91-15.07,14.31-26.79h36.63c-1.27,17.69-9.51,32.05-24.71,43.09-15.2,11.04-35.07,16.56-59.62,16.56-30.02,0-52.72-7.77-68.11-23.32-15.39-15.55-23.08-37.91-23.08-67.09s8.08-53.12,24.23-69.12c16.15-16,38.98-24,68.49-24s49.25,6.99,63.43,20.96c14.18,13.97,21.27,34.81,21.27,62.53v13.86ZM216.82,526.4v-2.53c0-15.43-4.01-27.43-12.02-36-8.01-8.56-20.16-12.84-36.44-12.84s-28.81,4.71-38.73,14.11c-9.92,9.41-14.88,21.83-14.88,37.26h102.07Z"/>
  <path class="st0" d="M446.97,456.43l-.76,38.7-.38,94.81-.19,26.19c-.26,23.77-3.02,40.7-8.3,50.78-5.28,10.08-14.53,18.08-27.76,24-13.23,5.92-31.48,8.87-54.75,8.87-19.33,0-34.85-1.89-46.55-5.66-11.7-3.78-20.45-9.41-26.23-16.9-5.79-7.49-9-18.68-9.63-33.55h39.11c1.02,12.28,5.21,21.01,12.59,26.19,7.37,5.18,18.38,7.77,33.01,7.77,18.44,0,31.64-4.51,39.59-13.52,7.95-9.02,12.05-24.33,12.31-45.97l.19-20.62c-4.58,9.13-12.34,16.34-23.28,21.63-10.94,5.3-24.68,7.94-41.21,7.94-28.36,0-49.22-8-62.58-24-13.35-16-20.03-36.5-20.03-61.52,0-26.93,7.98-48.25,23.94-63.96,15.96-15.72,37.04-23.58,63.24-23.58,13.61,0,25.53,2.11,35.77,6.34,10.24,4.22,18.92,10.84,26.04,19.86l.38-23.83h35.49ZM393.36,490.99c-11.32-9.18-24.93-13.77-40.83-13.77s-29.57,5.52-38.73,16.56c-9.16,11.04-13.74,26.76-13.74,47.15s4.51,35.1,13.55,45.8c9.03,10.7,22.51,16.05,40.45,16.05,12.46,0,22.7-2.34,30.72-7.01,8.01-4.67,14.28-11.13,18.79-19.35,4.51-8.22,6.77-21.69,6.77-40.39,0-20.84-5.66-35.85-16.98-45.04Z"/>
  <path class="st1" d="M492.04,380.21v101.4c6.49-10.37,15.1-17.91,25.85-22.65,10.75-4.73,23.5-7.1,38.25-7.1,26.83,0,47.72,7.69,62.67,23.07,14.94,15.38,22.42,36.87,22.42,64.47,0,30.76-8.14,53.97-24.42,69.63-16.28,15.66-37.33,23.49-63.15,23.49-13.1,0-25.12-2.37-36.06-7.1-10.94-4.73-19.84-12.05-26.71-21.97l-.57,16.73c-.26,4.39-.38,7.72-.38,9.97h-35.49l.57-19.43c0-5.18.06-9.07.19-11.66v-218.85h36.82ZM588.1,491.75c-9.6-11.83-23.25-17.75-40.92-17.75s-31.74,5.94-41.4,17.83c-9.67,11.89-14.5,29.04-14.5,51.46,0,21.18,4.61,37.43,13.83,48.76,9.22,11.32,22.8,16.98,40.73,16.98s31.7-6.06,41.69-18.17c9.98-12.11,14.98-28.53,14.98-49.26s-4.8-38.02-14.4-49.85Z"/>
  <path class="st2" d="M804.75,586.9c0,5.52.28,12.65.86,21.38.57,8.73,1.3,16.03,2.2,21.89h-33.2c-1.4-3.94-2.36-7.86-2.86-11.74-.51-3.89-.76-8.65-.76-14.28-5.98,9.92-13.83,17.66-23.56,23.24-9.73,5.58-22.16,8.37-37.3,8.37-20.6,0-37.2-4.71-49.79-14.11-12.59-9.41-18.89-21.77-18.89-37.09,0-18.02,8.01-32.93,24.04-44.7,16.03-11.77,41.08-17.66,75.17-17.66h12.02c5.47,0,11.32.34,17.55,1.01v-11.66c0-10.48-1.27-18-3.82-22.56-2.54-4.56-7.06-8.31-13.54-11.24-6.49-2.93-14.88-4.39-25.18-4.39-11.45,0-20.51,2.51-27.19,7.52-6.68,5.02-10.27,12.31-10.78,21.89h-36.63c1.27-18.03,8.65-31.12,22.13-39.29,13.48-8.17,31.73-12.25,54.75-12.25,20.99,0,38.95,3.92,53.9,11.74,14.94,7.83,22.42,20.87,22.42,39.12l-1.53,84.84ZM769.45,563.74l.76-18.08-4.2-.51-5.92-.34-10.87-.17c-23.4,0-41.05,2.96-52.94,8.87-11.89,5.92-17.84,14.62-17.84,26.11,0,9.13,3.65,16.48,10.97,22.05,7.31,5.58,17.2,8.37,29.67,8.37,15.52,0,27.66-4.22,36.44-12.67,8.78-8.45,13.42-19.66,13.93-33.63Z"/>
  <path class="st3" d="M838.29,456.43l61.24,137.06,62.58-137.06h39.87l-87.95,176.1-27.28,63.37h-37.96l29.76-66.42-81.66-173.05h41.4Z"/>
</svg>